# xmcd
#
# Track frame offsets:
#	150
#	13198
#	32370
#	54226
#	69733
#	85738
#	104215
#	123889
#	140505
#	168208
#	182169
#	200216
#	216223
# Disc length: 3175 seconds
# Revision: 2
# Processed by: cddbd v1.5.2PL0 Copyright (c) Steve Scherf et al.
#
# Submitted via: libkcddb 0.31
#
DISCID=ba0c650d
DTITLE=Laurie Lewis and The Right Hands - The Golden West
DYEAR=2006
DGENRE=Bluegrass
TTITLE0=Your Eyes
TTITLE1=Burley Coulter's Song for Kate Helen Branch
TTITLE2=99 Year Blues
TTITLE3=Before the Sun Goes Down
TTITLE4=Live Forever
TTITLE5=Rank Stranger
TTITLE6=Bury Me in Bluegrass
TTITLE7=The Golden West
TTITLE8=A Hand to Hold
TTITLE9=River Under the Road
TTITLE10=Hard Luck in Heaven
TTITLE11=The Mourning Cloak
TTITLE12=Goodbye Waltz
EXTD=
EXTT0=
EXTT1=
EXTT2=
EXTT3=
EXTT4=
EXTT5=
EXTT6=
EXTT7=
EXTT8=
EXTT9=
EXTT10=
EXTT11=
EXTT12=
PLAYORDER=
